<svg xmlns="http://www.w3.org/2000/svg" width="514.09979" height="468.10626" viewbox="0 0 514.09979 468.10626">
 <g>
  <title>Layer 1</title>
  <path fill="none" fill-rule="evenodd" stroke="#fff" stroke-width="10" stroke-miterlimit="4" id="path12471" d="m403.748993,202.270004c14.623993,6.529999 29.722015,12.584991 32.360992,31.099991c12.744019,-16.457001 24.494019,-31.394989 26.057007,-72.707001c0.628021,-16.595993 0.312012,-36.916992 -5.042999,-60.098991c0.085022,-22.083504 -14.296997,-57.161701 30.259003,-56.737103c10.14502,-2.717701 22.460999,-0.7813 25.21698,-19.3325c-11.628967,-23.39285 -32.546967,-25.108673 -57.577972,-17.23122c-16.723999,8.961121 -36.020996,12.32412 -46.229004,60.098919c-5.790009,23.481003 1.480988,49.138901 8.825012,74.808907c3.901978,31.248993 3.353973,56.643997 -13.869019,60.098999z"/>
  <path fill="none" fill-rule="evenodd" stroke="#fff" stroke-width="10" stroke-miterlimit="4" id="path10525" d="m39.5387,251.737c13.0116,13.937012 5.382801,2.212997 21.396801,26.151001c14.413101,21.54599 22.054901,39.541992 57.652496,57.652985c37.423996,19.040009 44.154999,26.963013 52.303009,58.246002c7.813995,30.002014 9.888,32.003998 11.886993,49.332001c-16.597,10.300018 -15.259003,18.889008 -5.942993,20.802002c5.645996,0.446014 20.950989,11.887024 28.528992,-19.018982c7.578003,-30.907013 2.229004,-65.973022 1.783005,-104.606995c36.04599,19.235992 93.725983,13.205994 108.171997,4.754974c-1.187988,36.404999 3.269012,41.902008 -1.187988,64.785004c-4.458008,22.882996 -5.201019,16.641998 -16.641998,26.746002c-8.552002,3.669006 -15.893005,12.665009 -12.482025,18.425018c3.003998,5.069977 12.630005,9.509003 25.558014,1.188995c12.928009,-8.320007 7.023987,-5.062012 25.557007,-24.963013c13.376984,-30.256989 25.070984,-50.414001 48.143005,-70.727997c21.27298,-19.544006 36.065979,-34.701996 47.547974,-70.729004c6.304016,-19.778992 10.697998,-28.825989 4.160004,-54.679993c-5.998993,-23.725006 -19.873993,-27.887009 -44.575989,-34.473007c-25.855011,-6.89299 -44.582001,-7.252991 -105.795013,-2.376999c-45.640991,3.63501 -87.216995,18.962997 -140.26799,8.320999c-14.238007,-2.856995 -28.584,-11.43399 -40.416,-23.179993c-11.484001,-11.400009 -26.670998,-18.404999 -45.765598,-17.831009c-7.129803,-10.812988 -25.7896,-22.473999 -39.8218,-21.990997c-2.321001,11.421005 11.3888,21.80101 14.264599,33.284012c-9.496399,10.01799 -24.82691,15.227997 -25.092219,40.859985c-0.1821,17.382004 -1.57113,20.896011 -4.13937,31.861008c6.983689,9.825012 22.24789,14.126007 35.17509,2.167999z"/>
  <g id="layer1"/>
  <path fill="none" fill-rule="evenodd" stroke="#fff" stroke-width="10" stroke-miterlimit="4" id="path11496" d="m21.113701,185.763c-8.719501,-6.582001 -17.112361,-13.899002 -19.613711,-34.472c20.741311,5.358994 29.080611,12.785004 41.010512,19.613007l-21.396801,14.858994z"/>
  <path fill="none" fill-rule="evenodd" stroke="#fff" stroke-width="10" stroke-miterlimit="4" id="path12467" d="m113.238998,333.757996c-3.623001,3.106995 -5.289001,5.933014 -8.826996,8.902008c-10.898903,9.14801 -22.6371,19.660004 -42.882202,43.994995c-12.9272,11.075012 -15.7439,25.243011 -20.802399,40.416016c-9.471703,24.158997 9.371696,25.65097 16.0476,14.264984c6.681099,-14.122009 10.348,-31.256989 24.3685,-38.039001c41.4645,-18.061005 52.292503,-32.514984 69.539497,-47.548004c-10.485992,-8.074982 -18.843002,-14.300995 -37.444,-21.990997z"/>
  <path fill="none" fill-rule="evenodd" stroke="#fff" stroke-width="10" stroke-miterlimit="4" id="path12469" d="m386.345001,359.315002c16.018005,22.515991 36.699005,40.368988 57.355011,58.247009c3.335999,13.052002 1.835999,22.651001 -0.296997,31.797974c-14.633026,20.045013 11.240997,20.443024 18.127991,12.184021c14.454987,-15.093994 10.151001,-50.131012 5.052002,-66.567993c-5.516022,-17.779022 -22.050995,-29.921021 -21.100006,-57.058014c3.631989,-26.552002 0.722992,-51.531006 -6.240997,-78.15799c-12.984009,56.895996 -23.063995,72.858978 -52.897003,99.554993z"/>

 </g>
</svg>